<svg width="144" height="29" viewBox="0 0 144 29" fill="none" xmlns="http://www.w3.org/2000/svg">
<path d="M2.12445 25.1287C7.25591 25.1287 12.138 24.9859 17.2162 24.0271C24.6737 22.619 32.6233 21.2553 39.9676 18.7423M39.9676 18.7423C42.1206 18.0056 44.2217 17.1701 46.243 16.2058C50.5163 14.1672 55.533 12.5254 58.1401 8.38456C58.8953 7.18522 59.0726 4.55332 57.8647 3.56512C53.9315 0.346978 45.9197 4.51462 44.0398 8.2744C42.466 11.422 38.5442 14.4802 39.9089 18.5742C39.9278 18.6309 39.9473 18.6869 39.9676 18.7423ZM39.9676 18.7423C41.8764 23.9669 49.7612 23.6415 54.0643 23.6415C58.3953 23.6415 62.0046 23.3479 66.1817 22.1544C70.8169 20.8301 76.0115 20.4094 80.4473 18.6844C84.1307 17.252 88.1008 16.6683 91.8516 15.4358M91.8516 15.4358C92.5101 15.2195 93.1618 14.9831 93.804 14.7187C96.936 13.429 100.592 12.7335 103.14 10.3674C104.327 9.26487 105.854 8.30001 106.61 6.78726C107.328 5.35093 104.736 5.79583 103.994 5.79583C97.8371 5.79583 91.8487 8.47642 91.8487 15.2144C91.8487 15.2893 91.8497 15.3631 91.8516 15.4358ZM91.8516 15.4358C91.9632 19.6807 95.3077 20.3775 99.2844 21.0528C105.682 22.1392 113.242 22.3621 119.609 20.9151C124.3 19.8489 130.087 19.5775 134.26 16.9219C136.427 15.5424 139.136 15.356 141.035 13.8374C141.505 13.4609 143.352 12.7358 141.42 12.7358H126.549M142.412 13.7273C137.713 17.6233 134.036 21.5857 130.514 26.6158" stroke="black" stroke-width="3" stroke-linecap="round"/>
</svg>
