<svg width="24" height="32" viewBox="0 0 24 32" fill="none" xmlns="http://www.w3.org/2000/svg">
<path d="M8.7632 24.143C11.5177 24.7855 12.7417 22.6507 13.0094 21.503L14.347 6.21501C13.9159 6.97324 8.17604 7.55977 5.17673 7.76806L5.48177 4.28138C8.59987 5.35723 13.0487 1.93194 14.8833 0.0848083L19.3662 0.47701L17.4923 21.8952C17.3127 23.9489 17.318 23.8876 16.6456 25.8364C15.9732 27.7852 12.8975 28.5199 12.3994 28.4764C12.0878 28.4491 9.08225 27.7934 7.71715 27.5027C7.89437 27.5562 8.0534 27.6021 8.18974 27.6402C8.96429 27.8252 8.81756 27.8158 8.18974 27.6402C8.12062 27.6237 8.04417 27.6057 7.96007 27.5861C6.67054 27.2853 6.89975 27.3285 7.71715 27.5027C5.80207 26.9245 1.76372 25.4651 1.29173 23.4893C0.557001 20.4135 0.0153253 20.8681 1.90182 16.5159C3.41101 13.0342 7.07991 12.7864 8.72571 13.0977L8.46424 16.0862C7.45352 16.1651 5.29761 16.7126 4.75968 18.2717C4.08727 20.2205 4.45464 21.7584 4.90916 22.3C5.36368 22.8417 5.3201 23.3398 8.7632 24.143Z" fill="white" fill-opacity="0.5"/>
<path d="M13.2553 27.4299C16.0098 28.0725 17.2339 25.9377 17.5016 24.79L18.8391 9.502C18.408 10.2602 12.6682 10.8468 9.66885 11.055L9.9739 7.56837C13.092 8.64422 17.5408 5.21893 19.3754 3.3718L23.8583 3.764L21.9845 25.1822C21.8048 27.2359 21.8101 27.1746 21.1377 29.1234C20.4653 31.0722 17.3896 31.8069 16.8915 31.7633C16.5799 31.7361 13.5744 31.0804 12.2093 30.7896C12.3865 30.8431 12.5455 30.8891 12.6819 30.9272C13.4564 31.1122 13.3097 31.1027 12.6819 30.9272C12.6128 30.9107 12.5363 30.8927 12.4522 30.873C11.1627 30.5722 11.3919 30.6155 12.2093 30.7896C10.2942 30.2115 6.25584 28.7521 5.78385 26.7763C5.04913 23.7005 4.50745 24.1551 6.39394 19.8029C7.90314 16.3212 11.572 16.0734 13.2178 16.3846L12.9564 19.3732C11.9456 19.4521 9.78974 19.9996 9.25181 21.5587C8.5794 23.5075 8.94676 25.0454 9.40128 25.587C9.8558 26.1287 9.81222 26.6268 13.2553 27.4299Z" fill="#050520" fill-opacity="0.5"/>
<path d="M10.7099 25.643C13.4644 26.2855 14.6884 24.1507 14.9562 23.003L16.2937 7.71501C15.8626 8.47324 10.1228 9.05977 7.12344 9.26806L7.42849 5.78138C10.5466 6.85723 14.9954 3.43194 16.83 1.58481L21.3129 1.97701L19.439 23.3952C19.2594 25.4489 19.2647 25.3876 18.5923 27.3364C17.9199 29.2852 14.8442 30.0199 14.3461 29.9764C14.0345 29.9491 11.029 29.2934 9.66387 29.0027C9.84108 29.0562 10.0001 29.1021 10.1365 29.1402C10.911 29.3252 10.7643 29.3158 10.1365 29.1402C10.0673 29.1237 9.99089 29.1057 9.90678 29.0861C8.61725 28.7853 8.84647 28.8285 9.66387 29.0027C7.74878 28.4245 3.71043 26.9651 3.23844 24.9893C2.50372 21.9135 1.96204 22.3681 3.84853 18.0159C5.35773 14.5342 9.02662 14.2864 10.6724 14.5977L10.411 17.5862C9.40024 17.6651 7.24433 18.2126 6.7064 19.7717C6.03399 21.7205 6.40135 23.2584 6.85587 23.8C7.31039 24.3417 7.26681 24.8398 10.7099 25.643Z" fill="#F5E23C"/>
</svg>
