<svg width="22" height="32" viewBox="0 0 22 32" fill="none" xmlns="http://www.w3.org/2000/svg">
<path d="M8.7632 25.1429C11.5177 25.7855 12.7417 23.6507 13.0094 22.503L14.347 7.21501C13.9159 7.97324 8.17603 8.55976 5.17672 8.76806L5.48177 5.28137C8.59987 6.35723 13.0487 2.93193 14.8833 1.0848L19.3662 1.477L17.7538 19.9066L17.4923 22.8952C17.3127 24.9489 17.318 24.8876 16.6456 26.8364C15.9732 28.7852 12.8975 29.5199 12.3994 29.4763C12.0878 29.4491 9.08225 28.7934 7.71715 28.5027C7.89436 28.5562 8.0534 28.6021 8.18974 28.6402C8.96428 28.8252 8.81756 28.8158 8.18974 28.6402C8.12062 28.6237 8.04417 28.6057 7.96006 28.5861C6.67053 28.2853 6.89975 28.3285 7.71715 28.5027C5.80206 27.9245 1.76371 26.4651 1.29173 24.4893C0.556998 21.4135 0.0153225 21.8681 1.90182 17.5159C3.41101 14.0342 7.07991 13.7864 8.7257 14.0977L8.46424 17.0862C7.45352 17.1651 5.29761 17.7126 4.75968 19.2717C4.08727 21.2205 4.45464 22.7584 4.90915 23.3C5.36367 23.8417 5.3201 24.3398 8.7632 25.1429Z" fill="white" fill-opacity="0.5"/>
<path d="M11.2553 26.4299C14.0098 27.0724 15.2339 24.9377 15.5016 23.79L16.8391 8.50199C16.408 9.26022 10.6682 9.84675 7.66885 10.055L7.9739 6.56836C11.092 7.64422 15.5408 4.21892 17.3754 2.37179L21.8583 2.76399L20.2459 21.1936L19.9845 24.1822C19.8048 26.2359 19.8101 26.1746 19.1377 28.1234C18.4653 30.0722 15.3896 30.8069 14.8915 30.7633C14.5799 30.7361 11.5744 30.0804 10.2093 29.7896C10.3865 29.8431 10.5455 29.8891 10.6819 29.9272C11.4564 30.1121 11.3097 30.1027 10.6819 29.9272C10.6127 29.9107 10.5363 29.8927 10.4522 29.873C9.16266 29.5722 9.39188 29.6155 10.2093 29.7896C8.29419 29.2115 4.25584 27.7521 3.78385 25.7763C3.04912 22.7005 2.50745 23.155 4.39394 18.8029C5.90314 15.3212 9.57203 15.0733 11.2178 15.3846L10.9564 18.3732C9.94565 18.4521 7.78973 18.9996 7.25181 20.5587C6.5794 22.5075 6.94676 24.0453 7.40128 24.587C7.8558 25.1287 7.81222 25.6268 11.2553 26.4299Z" fill="#050520" fill-opacity="0.5"/>
<path d="M9.70992 25.6429C12.4644 26.2855 13.6884 24.1507 13.9562 23.003L15.2937 7.71501C14.8626 8.47324 9.12275 9.05976 6.12344 9.26806L6.42849 5.78137C9.54658 6.85723 13.9954 3.43193 15.83 1.5848L20.3129 1.977L18.7005 20.4066L18.439 23.3952C18.2594 25.4489 18.2647 25.3876 17.5923 27.3364C16.9199 29.2852 13.8442 30.0199 13.3461 29.9763C13.0345 29.9491 10.029 29.2934 8.66387 29.0027C8.84108 29.0562 9.00011 29.1021 9.13646 29.1402C9.911 29.3252 9.76428 29.3158 9.13646 29.1402C9.06734 29.1237 8.99088 29.1057 8.90678 29.0861C7.61725 28.7853 7.84647 28.8285 8.66387 29.0027C6.74878 28.4245 2.71043 26.9651 2.23844 24.9893C1.50371 21.9135 0.962039 22.3681 2.84853 18.0159C4.35773 14.5342 8.02662 14.2864 9.67242 14.5977L9.41095 17.5862C8.40024 17.6651 6.24432 18.2126 5.7064 19.7717C5.03399 21.7205 5.40135 23.2584 5.85587 23.8C6.31039 24.3417 6.26681 24.8398 9.70992 25.6429Z" fill="#F5E23C"/>
</svg>
